<?xml version="1.0" encoding="UTF-8"?><svg id="Ebene_1" xmlns="http://www.w3.org/2000/svg" viewBox="0 0 283.2 85.29"><path d="M13.38,22.52l-4.2-1.01c-1.69-.41-2.93-.98-3.72-1.72s-1.19-1.69-1.19-2.85c0-1.38.59-2.5,1.77-3.36,1.18-.87,2.68-1.3,4.49-1.3s3.2.41,4.19,1.24c.99.83,1.7,1.87,2.12,3.13l3.05-.79c-.41-1.33-1.02-2.47-1.83-3.44-.81-.97-1.84-1.72-3.08-2.25-1.24-.53-2.73-.8-4.47-.8-1.85,0-3.5.33-4.95.98-1.45.65-2.59,1.56-3.41,2.73-.83,1.16-1.24,2.51-1.24,4.05,0,1.85.59,3.39,1.76,4.61s2.93,2.12,5.29,2.69l4.47,1.08c1.49.36,2.61.91,3.35,1.65s1.12,1.66,1.12,2.78c0,1.39-.63,2.55-1.88,3.49-1.25.93-2.92,1.4-5,1.4-1.82,0-3.31-.41-4.48-1.22-1.17-.81-1.95-2.04-2.35-3.7L0,30.68c.33,1.54.94,2.84,1.84,3.89.9,1.06,2.05,1.86,3.44,2.41,1.39.55,2.99.82,4.79.82,2.01,0,3.79-.34,5.34-1.03,1.55-.69,2.75-1.64,3.62-2.85.87-1.21,1.3-2.6,1.3-4.18,0-1.82-.58-3.33-1.73-4.54-1.15-1.21-2.89-2.1-5.22-2.68Z" fill="#004bf1"/><path d="M45.21,11.15c-1.69-1.18-3.65-1.77-5.89-1.77-1.69,0-3.08.3-4.19.9-1.11.6-2,1.33-2.68,2.2s-1.2,1.72-1.56,2.55h-.37v-5.28h-3.24v37.72h3.34v-15.4h.27c.38.85.9,1.72,1.58,2.6.68.88,1.58,1.63,2.7,2.22s2.5.9,4.14.9c2.26,0,4.23-.59,5.92-1.78,1.69-1.19,3-2.85,3.94-4.99.94-2.14,1.41-4.63,1.41-7.48s-.47-5.31-1.42-7.44c-.95-2.13-2.27-3.78-3.95-4.96ZM46.26,29.23c-.65,1.7-1.59,3.05-2.82,4.05-1.24,1-2.75,1.5-4.56,1.5s-3.25-.48-4.48-1.45-2.18-2.3-2.84-3.99c-.65-1.69-.98-3.63-.98-5.81s.32-4.1.97-5.77c.65-1.67,1.59-2.98,2.82-3.93,1.24-.95,2.74-1.42,4.51-1.42s3.32.49,4.57,1.47,2.19,2.31,2.82,3.99c.64,1.68.96,3.57.96,5.66s-.32,4-.97,5.7Z" fill="#004bf1"/><path d="M68.52,9.38c-1.72,0-3.25.42-4.61,1.26-1.35.84-2.3,1.97-2.86,3.38h-.25v-4.27h-3.24v27.46h3.34v-17.61c0-1.36.32-2.56.95-3.61s1.5-1.87,2.62-2.48c1.11-.61,2.37-.91,3.78-.91.44,0,.85.02,1.23.06s.62.08.74.11v-3.34c-.23-.02-.5-.03-.81-.04-.31,0-.61-.01-.88-.01Z" fill="#004bf1"/><path d="M92.52,12.71c-1.11-1.12-2.37-1.96-3.76-2.51-1.39-.55-2.84-.82-4.35-.82-2.39,0-4.49.61-6.3,1.84s-3.22,2.91-4.22,5.06c-1.01,2.14-1.51,4.6-1.51,7.37s.51,5.22,1.54,7.34c1.02,2.13,2.47,3.79,4.35,5,1.87,1.2,4.1,1.81,6.67,1.81,1.85,0,3.49-.3,4.91-.9s2.61-1.39,3.55-2.37c.94-.98,1.63-2.05,2.05-3.19l-3.17-1.01c-.33.8-.82,1.54-1.49,2.22-.66.68-1.48,1.22-2.46,1.63-.97.41-2.1.61-3.38.61-1.88,0-3.52-.45-4.9-1.34-1.38-.89-2.45-2.14-3.21-3.76-.7-1.5-1.06-3.25-1.11-5.22h20.37v-1.45c0-2.33-.32-4.35-.96-6.07s-1.51-3.14-2.63-4.26ZM79.86,13.75c1.3-.92,2.82-1.38,4.56-1.38s3.25.45,4.49,1.35c1.24.9,2.2,2.13,2.87,3.68.54,1.26.86,2.67.96,4.2h-16.98c.09-1.52.43-2.93,1.05-4.22.73-1.51,1.74-2.72,3.05-3.63Z" fill="#004bf1"/><rect x="102.96" y="9.75" width="3.34" height="27.46" fill="#004bf1"/><path d="M104.66,0c-.65,0-1.22.23-1.71.68-.48.45-.72,1-.72,1.66s.24,1.19.72,1.65c.48.46,1.05.69,1.71.69s1.24-.23,1.72-.69c.47-.46.71-1.01.71-1.65s-.24-1.21-.71-1.66C105.9.23,105.33,0,104.66,0Z" fill="#004bf1"/><path d="M122.87,34.4c-.34.06-.62.09-.85.09-1.24.13-2.17-.12-2.78-.76-.61-.64-.91-1.64-.91-3V12.65h5.65v-2.9h-5.65V3.22h-3.34v6.53h-4.08v2.9h4.08v18.3c0,2.13.62,3.79,1.85,4.97s2.95,1.71,5.15,1.56c.44-.02.88-.06,1.31-.12s.83-.16,1.19-.27l-.69-2.87c-.29.07-.61.13-.95.18Z" fill="#004bf1"/><polygon points="133.44 33.87 148.87 12.48 148.87 9.75 129.54 9.75 129.54 12.87 144.62 12.87 144.62 13.09 128.87 34.63 128.87 37.21 149.46 37.21 149.46 34.09 133.44 34.09 133.44 33.87" fill="#004bf1"/><path d="M174.97,12.71c-1.11-1.12-2.37-1.96-3.76-2.51-1.39-.55-2.84-.82-4.35-.82-2.39,0-4.49.61-6.3,1.84s-3.22,2.91-4.22,5.06c-1.01,2.14-1.51,4.6-1.51,7.37s.51,5.22,1.54,7.34c1.02,2.13,2.47,3.79,4.35,5,1.87,1.2,4.1,1.81,6.67,1.81,1.85,0,3.49-.3,4.91-.9s2.61-1.39,3.55-2.37c.94-.98,1.63-2.05,2.05-3.19l-3.17-1.01c-.33.8-.82,1.54-1.49,2.22-.66.68-1.48,1.22-2.46,1.63-.97.41-2.1.61-3.38.61-1.88,0-3.52-.45-4.9-1.34-1.38-.89-2.45-2.14-3.21-3.76-.7-1.5-1.06-3.25-1.11-5.22h20.37v-1.45c0-2.33-.32-4.35-.96-6.07-.64-1.72-1.51-3.14-2.63-4.26ZM162.31,13.75c1.3-.92,2.82-1.38,4.56-1.38s3.25.45,4.49,1.35c1.24.9,2.2,2.13,2.87,3.68.54,1.26.86,2.67.96,4.2h-16.98c.09-1.52.43-2.93,1.05-4.22.73-1.51,1.74-2.72,3.05-3.63Z" fill="#004bf1"/><path d="M196.9,9.39c-.31,0-.61-.01-.88-.01-1.72,0-3.25.42-4.61,1.26-1.35.84-2.3,1.97-2.86,3.38h-.25v-4.27h-3.24v27.46h3.34v-17.61c0-1.36.32-2.56.95-3.61.63-1.05,1.5-1.87,2.62-2.48,1.11-.61,2.37-.91,3.78-.91.44,0,.85.02,1.23.06s.62.08.74.11v-3.34c-.23-.02-.5-.03-.81-.04Z" fill="#004bf1"/><path d="M12.28,56.87c-1.72,0-3.25.42-4.61,1.26-1.35.84-2.3,1.97-2.86,3.38h-.25v-4.27H1.32v27.46h3.34v-17.61c0-1.36.32-2.56.95-3.61.63-1.05,1.5-1.87,2.62-2.48s2.37-.91,3.78-.91c.44,0,.85.02,1.23.06.38.04.62.08.74.11v-3.34c-.23-.02-.5-.03-.81-.04s-.61-.01-.88-.01Z" fill="#004bf1"/><path d="M37.28,60.2c-1.11-1.12-2.37-1.96-3.76-2.51-1.39-.55-2.84-.82-4.35-.82-2.39,0-4.49.61-6.3,1.84-1.81,1.23-3.22,2.91-4.22,5.06s-1.51,4.6-1.51,7.37.51,5.22,1.54,7.34c1.02,2.13,2.47,3.79,4.35,5,1.87,1.2,4.1,1.81,6.67,1.81,1.85,0,3.49-.3,4.91-.9,1.42-.6,2.61-1.39,3.55-2.37s1.63-2.05,2.05-3.19l-3.17-1.01c-.33.8-.82,1.54-1.49,2.22s-1.48,1.22-2.46,1.63-2.1.61-3.38.61c-1.88,0-3.52-.45-4.9-1.34-1.38-.89-2.45-2.14-3.21-3.76-.7-1.5-1.06-3.25-1.11-5.22h20.37v-1.45c0-2.33-.32-4.35-.96-6.07-.64-1.72-1.51-3.14-2.63-4.26ZM24.62,61.24c1.3-.92,2.82-1.38,4.56-1.38s3.25.45,4.49,1.35c1.24.9,2.2,2.13,2.87,3.68.54,1.26.86,2.67.96,4.2h-16.98c.09-1.52.43-2.93,1.05-4.22.73-1.51,1.74-2.72,3.05-3.63Z" fill="#004bf1"/><rect x="47.72" y="57.24" width="3.34" height="27.46" fill="#004bf1"/><path d="M49.41,47.49c-.65,0-1.22.23-1.71.68s-.72,1-.72,1.66.24,1.19.72,1.65c.48.46,1.05.69,1.71.69s1.24-.23,1.72-.69c.47-.46.71-1.01.71-1.65s-.24-1.21-.71-1.66c-.47-.45-1.05-.68-1.72-.68Z" fill="#004bf1"/><path d="M71.52,70.01l-4.2-1.01c-1.69-.41-2.93-.98-3.72-1.72s-1.19-1.69-1.19-2.85c0-1.38.59-2.5,1.77-3.36s2.68-1.3,4.49-1.3,3.2.41,4.19,1.24c.99.83,1.7,1.87,2.12,3.13l3.05-.79c-.41-1.33-1.02-2.47-1.83-3.44-.81-.97-1.84-1.72-3.08-2.25-1.24-.53-2.73-.8-4.47-.8-1.85,0-3.5.33-4.95.98-1.45.65-2.59,1.56-3.41,2.73-.83,1.16-1.24,2.51-1.24,4.05,0,1.85.59,3.39,1.76,4.61,1.17,1.22,2.93,2.12,5.29,2.69l4.47,1.08c1.49.36,2.61.91,3.35,1.65.74.74,1.12,1.66,1.12,2.78,0,1.39-.63,2.55-1.88,3.49s-2.92,1.4-5,1.4c-1.82,0-3.31-.41-4.48-1.22-1.17-.81-1.95-2.04-2.35-3.7l-3.19.76c.33,1.54.94,2.84,1.84,3.89.9,1.06,2.05,1.86,3.44,2.41,1.39.55,2.99.82,4.79.82,2.01,0,3.79-.34,5.34-1.03,1.55-.69,2.75-1.64,3.62-2.85.87-1.21,1.3-2.6,1.3-4.18,0-1.82-.58-3.33-1.73-4.54-1.15-1.21-2.89-2.1-5.22-2.68Z" fill="#004bf1"/><path d="M104.13,60.2c-1.11-1.12-2.37-1.96-3.76-2.51-1.39-.55-2.84-.82-4.35-.82-2.39,0-4.49.61-6.3,1.84s-3.22,2.91-4.22,5.06c-1.01,2.14-1.51,4.6-1.51,7.37s.51,5.22,1.54,7.34c1.02,2.13,2.47,3.79,4.35,5,1.87,1.2,4.1,1.81,6.67,1.81,1.85,0,3.49-.3,4.91-.9s2.61-1.39,3.55-2.37c.94-.98,1.63-2.05,2.05-3.19l-3.17-1.01c-.33.8-.82,1.54-1.49,2.22s-1.48,1.22-2.46,1.63c-.97.41-2.1.61-3.38.61-1.88,0-3.52-.45-4.9-1.34-1.38-.89-2.45-2.14-3.21-3.76-.7-1.5-1.06-3.25-1.11-5.22h20.37v-1.45c0-2.33-.32-4.35-.96-6.07s-1.51-3.14-2.63-4.26ZM91.47,61.24c1.3-.92,2.82-1.38,4.56-1.38s3.25.45,4.49,1.35c1.24.9,2.2,2.13,2.87,3.68.54,1.26.86,2.67.96,4.2h-16.98c.09-1.52.43-2.93,1.05-4.22.73-1.51,1.74-2.72,3.05-3.63Z" fill="#004bf1"/><path d="M131.29,58.04c-1.4-.78-3.03-1.17-4.9-1.17-2.08,0-3.93.53-5.54,1.6-1.29.85-2.3,2.13-3.04,3.83l-.02-5.06h-3.22v27.46h3.34v-17.12c0-1.57.33-2.93.99-4.09.66-1.15,1.57-2.04,2.71-2.65,1.15-.61,2.44-.92,3.88-.92,2.11,0,3.8.65,5.06,1.95,1.26,1.3,1.89,3.07,1.89,5.32v17.51h3.32v-17.76c0-2.18-.4-4.01-1.19-5.5s-1.89-2.62-3.29-3.4Z" fill="#004bf1"/><rect x="144.17" y="48.1" width="3.34" height="36.6" fill="#004bf1"/><path d="M174.62,60.2c-1.11-1.12-2.37-1.96-3.76-2.51-1.39-.55-2.84-.82-4.35-.82-2.39,0-4.49.61-6.3,1.84-1.81,1.23-3.22,2.91-4.22,5.06-1.01,2.14-1.51,4.6-1.51,7.37s.51,5.22,1.54,7.34c1.02,2.13,2.47,3.79,4.35,5,1.87,1.2,4.1,1.81,6.67,1.81,1.85,0,3.49-.3,4.91-.9s2.61-1.39,3.55-2.37,1.63-2.05,2.05-3.19l-3.17-1.01c-.33.8-.82,1.54-1.49,2.22-.66.68-1.48,1.22-2.46,1.63s-2.1.61-3.38.61c-1.88,0-3.52-.45-4.9-1.34-1.38-.89-2.45-2.14-3.21-3.76-.7-1.5-1.06-3.25-1.11-5.22h20.37v-1.45c0-2.33-.32-4.35-.96-6.07-.64-1.72-1.51-3.14-2.63-4.26ZM161.96,61.24c1.3-.92,2.82-1.38,4.56-1.38s3.25.45,4.49,1.35c1.24.9,2.2,2.13,2.87,3.68.54,1.26.86,2.67.96,4.2h-16.98c.09-1.52.43-2.93,1.05-4.22.73-1.51,1.74-2.72,3.05-3.63Z" fill="#004bf1"/><rect x="185.06" y="57.24" width="3.34" height="27.46" fill="#004bf1"/><path d="M186.76,47.49c-.65,0-1.22.23-1.71.68-.48.45-.72,1-.72,1.66s.24,1.19.72,1.65c.48.46,1.05.69,1.71.69s1.24-.23,1.72-.69c.47-.46.71-1.01.71-1.65s-.24-1.21-.71-1.66c-.47-.45-1.05-.68-1.72-.68Z" fill="#004bf1"/><path d="M204.97,81.89c-.34.06-.62.09-.85.09-1.24.13-2.17-.12-2.78-.76-.61-.64-.91-1.64-.91-3v-18.08h5.65v-2.9h-5.65v-6.53h-3.34v6.53h-4.08v2.9h4.08v18.3c0,2.13.62,3.79,1.85,4.97s2.95,1.71,5.15,1.56c.44-.02.88-.06,1.31-.12.43-.07.83-.16,1.19-.27l-.69-2.87c-.29.07-.61.13-.95.18Z" fill="#004bf1"/><path d="M228.52,58.04c-1.4-.78-3.03-1.17-4.9-1.17-2.08,0-3.93.53-5.54,1.6-1.29.85-2.3,2.13-3.04,3.83l-.02-5.06h-3.22v27.46h3.34v-17.12c0-1.57.33-2.93.99-4.09.66-1.15,1.57-2.04,2.71-2.65,1.15-.61,2.44-.92,3.88-.92,2.11,0,3.8.65,5.06,1.95,1.26,1.3,1.89,3.07,1.89,5.32v17.51h3.32v-17.76c0-2.18-.4-4.01-1.19-5.5-.79-1.49-1.89-2.62-3.29-3.4Z" fill="#004bf1"/><path d="M260.12,60.2c-1.11-1.12-2.37-1.96-3.76-2.51-1.39-.55-2.84-.82-4.35-.82-2.39,0-4.49.61-6.3,1.84s-3.22,2.91-4.22,5.06c-1.01,2.14-1.51,4.6-1.51,7.37s.51,5.22,1.54,7.34c1.02,2.13,2.47,3.79,4.35,5,1.87,1.2,4.1,1.81,6.67,1.81,1.85,0,3.49-.3,4.91-.9s2.61-1.39,3.55-2.37c.94-.98,1.63-2.05,2.05-3.19l-3.17-1.01c-.33.8-.82,1.54-1.49,2.22s-1.48,1.22-2.46,1.63c-.97.41-2.1.61-3.38.61-1.88,0-3.52-.45-4.9-1.34-1.38-.89-2.45-2.14-3.21-3.76-.7-1.5-1.06-3.25-1.11-5.22h20.37v-1.45c0-2.33-.32-4.35-.96-6.07s-1.51-3.14-2.63-4.26ZM247.46,61.24c1.3-.92,2.82-1.38,4.56-1.38s3.25.45,4.49,1.35c1.24.9,2.2,2.13,2.87,3.68.54,1.26.86,2.67.96,4.2h-16.98c.09-1.52.43-2.93,1.05-4.22.73-1.51,1.74-2.72,3.05-3.63Z" fill="#004bf1"/><path d="M282.39,56.89c-.31,0-.61-.01-.88-.01-1.72,0-3.25.42-4.61,1.26-1.35.84-2.3,1.97-2.86,3.38h-.25v-4.27h-3.24v27.46h3.34v-17.61c0-1.36.32-2.56.95-3.61s1.5-1.87,2.62-2.48,2.37-.91,3.78-.91c.44,0,.85.02,1.23.06.38.04.62.08.74.11v-3.34c-.23-.02-.5-.03-.81-.04Z" fill="#004bf1"/><rect x="222.58" y="9.38" width="27.83" height="27.83" fill="#004bf1"/><path d="M226.13,24.27v-1.94h20.73v1.94h-20.73ZM235.47,33.66V12.93h2.04v20.73h-2.04Z" fill="#fff"/></svg>